<?xml version="1.0" encoding="utf-8"?>
<!-- Generator: Adobe Illustrator 18.1.1, SVG Export Plug-In . SVG Version: 6.00 Build 0)  -->
<svg version="1.1" id="Layer_1" xmlns="http://www.w3.org/2000/svg" xmlns:xlink="http://www.w3.org/1999/xlink" x="0px" y="0px"
	 viewBox="0 0 140 48" enable-background="new 0 0 140 48" xml:space="preserve">
<g>
	<path d="M34.7,10.2c0-0.8,0.1-1.6,0.4-2.3c0.3-0.8,0.7-1.5,1.2-2.1c0.5-0.6,1.2-1.1,1.9-1.5c0.8-0.4,1.6-0.6,2.6-0.6
		c1.2,0,2.2,0.3,3,0.8c0.8,0.5,1.4,1.2,1.8,2.1l-0.6,0.3c-0.2-0.5-0.5-0.9-0.9-1.2c-0.3-0.3-0.7-0.6-1.1-0.8
		c-0.4-0.2-0.8-0.3-1.2-0.4c-0.4-0.1-0.8-0.1-1.2-0.1c-0.9,0-1.6,0.2-2.3,0.5c-0.7,0.3-1.3,0.8-1.7,1.4c-0.5,0.6-0.8,1.2-1.1,1.9
		c-0.2,0.7-0.4,1.4-0.4,2.2c0,0.8,0.1,1.6,0.4,2.3c0.3,0.7,0.7,1.4,1.2,1.9c0.5,0.6,1.1,1,1.8,1.3c0.7,0.3,1.4,0.5,2.2,0.5
		c0.4,0,0.8-0.1,1.3-0.2c0.4-0.1,0.9-0.3,1.3-0.5c0.4-0.2,0.8-0.5,1.1-0.8c0.3-0.3,0.6-0.7,0.9-1.2l0.6,0.2
		c-0.2,0.5-0.5,0.9-0.9,1.3c-0.4,0.4-0.8,0.7-1.3,1c-0.5,0.3-1,0.5-1.5,0.6c-0.5,0.1-1,0.2-1.5,0.2c-0.9,0-1.7-0.2-2.4-0.6
		c-0.7-0.4-1.4-0.9-1.9-1.5c-0.5-0.6-1-1.3-1.3-2.2C34.9,11.8,34.7,11,34.7,10.2z"/>
	<path d="M55.7,16.8h-0.6v-5.3c0-2.5-0.8-3.8-2.5-3.8c-0.4,0-0.8,0.1-1.2,0.2c-0.4,0.2-0.8,0.4-1.1,0.7c-0.3,0.3-0.6,0.6-0.9,1
		c-0.3,0.4-0.4,0.8-0.6,1.2v6h-0.6V3.4h0.6v6.3c0.2-0.4,0.4-0.7,0.7-1c0.3-0.3,0.6-0.6,0.9-0.8c0.3-0.2,0.7-0.4,1.1-0.5
		c0.4-0.1,0.8-0.2,1.2-0.2c1,0,1.8,0.4,2.3,1.1c0.5,0.7,0.7,1.8,0.7,3.2V16.8z"/>
	<path d="M62.8,7.8c-0.9,0-1.6,0.3-2.3,0.8c-0.6,0.5-1.1,1.2-1.4,2.1v6h-0.6V7.2h0.6v2.4C59.5,9,59.9,8.4,60.5,8
		c0.6-0.4,1.1-0.7,1.8-0.8c0.1,0,0.2,0,0.3,0c0.1,0,0.2,0,0.3,0V7.8z"/>
	<path d="M64.7,4.9V3.4h0.6v1.5H64.7z M64.7,16.8V7.2h0.6v9.6H64.7z"/>
	<path d="M71.2,17c-0.7,0-1.4-0.1-2.1-0.4c-0.6-0.2-1.2-0.6-1.7-1.1l0.3-0.4c0.5,0.5,1,0.8,1.6,1c0.5,0.2,1.1,0.3,1.8,0.3
		c0.9,0,1.6-0.2,2.2-0.6c0.6-0.4,0.8-0.9,0.8-1.6c0-0.3-0.1-0.6-0.2-0.8c-0.1-0.2-0.3-0.4-0.6-0.6c-0.3-0.2-0.6-0.3-1-0.4
		c-0.4-0.1-0.9-0.2-1.4-0.4c-0.5-0.1-1-0.2-1.4-0.4c-0.4-0.1-0.7-0.3-1-0.4c-0.3-0.2-0.4-0.4-0.6-0.6c-0.1-0.2-0.2-0.6-0.2-0.9
		c0-0.5,0.1-0.9,0.3-1.2c0.2-0.3,0.4-0.6,0.7-0.9c0.3-0.2,0.7-0.4,1.1-0.5c0.4-0.1,0.8-0.2,1.3-0.2c0.8,0,1.4,0.1,2,0.4
		c0.6,0.3,1,0.6,1.2,1l-0.4,0.3c-0.3-0.4-0.7-0.6-1.2-0.8c-0.5-0.2-1.1-0.3-1.7-0.3c-0.4,0-0.7,0-1.1,0.1c-0.3,0.1-0.6,0.2-0.9,0.4
		c-0.3,0.2-0.5,0.4-0.6,0.7c-0.1,0.3-0.2,0.6-0.2,1c0,0.3,0,0.5,0.1,0.7c0.1,0.2,0.3,0.4,0.5,0.5c0.2,0.1,0.5,0.2,0.8,0.3
		c0.3,0.1,0.7,0.2,1.2,0.3c0.6,0.1,1.1,0.3,1.6,0.4c0.5,0.1,0.8,0.3,1.2,0.5c0.3,0.2,0.6,0.4,0.7,0.7c0.2,0.3,0.2,0.6,0.2,1
		c0,0.4-0.1,0.8-0.3,1.1c-0.2,0.3-0.4,0.6-0.7,0.9c-0.3,0.2-0.7,0.4-1.1,0.6C72.2,16.9,71.7,17,71.2,17z"/>
	<path d="M81,16.4c0,0-0.1,0-0.2,0.1c-0.1,0.1-0.2,0.1-0.4,0.2c-0.2,0.1-0.4,0.1-0.6,0.2c-0.2,0-0.5,0.1-0.7,0.1
		c-0.2,0-0.5,0-0.7-0.1c-0.2-0.1-0.4-0.2-0.6-0.3c-0.2-0.1-0.3-0.3-0.4-0.5c-0.1-0.2-0.1-0.4-0.1-0.7V7.8H76V7.2h1.4V3.9H78v3.3h2.3
		v0.6H78v7.4c0,0.4,0.2,0.6,0.4,0.8c0.2,0.2,0.5,0.3,0.8,0.3c0.2,0,0.4,0,0.6-0.1c0.2,0,0.3-0.1,0.5-0.1c0.1-0.1,0.3-0.1,0.3-0.2
		c0.1,0,0.1-0.1,0.2-0.1L81,16.4z"/>
</g>
<g>
	<path d="M5.4,24.2c0-1,0.2-2.1,0.5-3.1c0.4-1,0.9-2,1.6-2.8c0.7-0.8,1.6-1.5,2.6-2c1-0.5,2.2-0.8,3.5-0.8c1.5,0,2.9,0.4,4,1
		c1.1,0.7,1.9,1.6,2.4,2.7l-1.4,0.8c-0.3-0.6-0.6-1-1-1.4c-0.4-0.4-0.8-0.7-1.3-1c-0.5-0.2-0.9-0.4-1.4-0.5c-0.5-0.1-1-0.2-1.4-0.2
		c-1,0-2,0.2-2.8,0.6c-0.8,0.4-1.5,1-2,1.7c-0.5,0.7-1,1.5-1.2,2.3c-0.3,0.9-0.4,1.7-0.4,2.6c0,1,0.2,1.9,0.5,2.8
		C8,28,8.4,28.7,9,29.4c0.6,0.7,1.3,1.2,2.1,1.6c0.8,0.4,1.6,0.6,2.6,0.6c0.5,0,1-0.1,1.5-0.2c0.5-0.1,1-0.3,1.5-0.6
		c0.5-0.3,0.9-0.6,1.3-1c0.4-0.4,0.7-0.9,1-1.5l1.4,0.7c-0.3,0.7-0.7,1.2-1.2,1.7c-0.5,0.5-1.1,0.9-1.7,1.3c-0.6,0.3-1.3,0.6-2,0.8
		c-0.7,0.2-1.4,0.3-2,0.3c-1.2,0-2.3-0.3-3.3-0.8c-1-0.5-1.8-1.2-2.6-2C7,29.5,6.4,28.5,6,27.5C5.6,26.4,5.4,25.3,5.4,24.2z"/>
	<path d="M28.4,33.3c-0.9,0-1.8-0.2-2.6-0.5c-0.8-0.3-1.4-0.8-2-1.4c-0.6-0.6-1-1.3-1.3-2.1c-0.3-0.8-0.5-1.6-0.5-2.5
		c0-0.9,0.2-1.7,0.5-2.5c0.3-0.8,0.8-1.5,1.3-2.1c0.6-0.6,1.2-1.1,2-1.4c0.8-0.4,1.6-0.5,2.5-0.5c0.9,0,1.8,0.2,2.5,0.5
		c0.8,0.4,1.4,0.8,2,1.4c0.6,0.6,1,1.3,1.3,2.1c0.3,0.8,0.5,1.6,0.5,2.5c0,0.9-0.2,1.7-0.5,2.5c-0.3,0.8-0.8,1.5-1.3,2.1
		c-0.6,0.6-1.2,1.1-2,1.4C30.2,33.1,29.3,33.3,28.4,33.3z M23.8,26.7c0,0.7,0.1,1.4,0.4,2c0.2,0.6,0.6,1.1,1,1.6
		c0.4,0.5,0.9,0.8,1.5,1.1c0.6,0.3,1.2,0.4,1.8,0.4c0.6,0,1.2-0.1,1.8-0.4c0.6-0.3,1.1-0.6,1.5-1.1c0.4-0.5,0.8-1,1-1.6
		c0.2-0.6,0.4-1.3,0.4-2c0-0.7-0.1-1.4-0.4-2c-0.2-0.6-0.6-1.2-1-1.6c-0.4-0.5-0.9-0.8-1.5-1.1c-0.6-0.3-1.1-0.4-1.8-0.4
		c-0.6,0-1.2,0.1-1.8,0.4c-0.6,0.3-1,0.6-1.5,1.1c-0.4,0.5-0.7,1-1,1.6C23.9,25.3,23.8,26,23.8,26.7z"/>
	<path d="M56.3,33h-1.7v-7.1c0-1.5-0.2-2.6-0.7-3.3c-0.5-0.7-1.2-1-2.1-1c-0.5,0-0.9,0.1-1.4,0.3c-0.4,0.2-0.8,0.4-1.2,0.8
		c-0.4,0.3-0.7,0.7-1,1.2c-0.3,0.4-0.5,0.9-0.6,1.5V33H46v-7.1c0-1.5-0.2-2.6-0.7-3.3c-0.5-0.7-1.2-1-2.1-1c-1,0-1.8,0.3-2.6,1
		c-0.7,0.7-1.3,1.5-1.6,2.6V33h-1.7V20.3h1.5v2.9c0.5-1,1.2-1.7,2.1-2.3c0.8-0.5,1.8-0.8,2.8-0.8c1.1,0,1.9,0.3,2.6,0.9
		c0.7,0.6,1,1.4,1.2,2.4c1.2-2.2,2.8-3.3,4.9-3.3c0.7,0,1.3,0.1,1.8,0.4c0.5,0.3,0.9,0.6,1.2,1.1c0.3,0.5,0.5,1.1,0.7,1.7
		c0.1,0.7,0.2,1.4,0.2,2.3V33z"/>
	<path d="M78.7,33H77v-7.1c0-1.5-0.2-2.6-0.7-3.3c-0.5-0.7-1.2-1-2.1-1c-0.5,0-0.9,0.1-1.4,0.3c-0.4,0.2-0.8,0.4-1.2,0.8
		c-0.4,0.3-0.7,0.7-1,1.2c-0.3,0.4-0.5,0.9-0.6,1.5V33h-1.7v-7.1c0-1.5-0.2-2.6-0.7-3.3c-0.5-0.7-1.2-1-2.1-1c-1,0-1.8,0.3-2.6,1
		c-0.7,0.7-1.3,1.5-1.6,2.6V33h-1.7V20.3h1.5v2.9c0.5-1,1.2-1.7,2.1-2.3c0.8-0.5,1.8-0.8,2.8-0.8c1.1,0,1.9,0.3,2.6,0.9
		c0.7,0.6,1,1.4,1.2,2.4c1.2-2.2,2.8-3.3,4.9-3.3c0.7,0,1.3,0.1,1.8,0.4c0.5,0.3,0.9,0.6,1.2,1.1c0.3,0.5,0.5,1.1,0.7,1.7
		c0.1,0.7,0.2,1.4,0.2,2.3V33z"/>
	<path d="M86.1,33.3c-1.3,0-2.3-0.5-3-1.4c-0.7-0.9-1-2.3-1-4.1v-7.5h1.7v7.2c0,2.9,1,4.3,3,4.3c0.5,0,1-0.1,1.4-0.2
		c0.5-0.2,0.9-0.4,1.3-0.7c0.4-0.3,0.8-0.7,1.1-1.1c0.3-0.4,0.6-0.9,0.8-1.4v-8h1.7v10.6c0,0.5,0.2,0.7,0.6,0.7V33
		c-0.3,0-0.6,0.1-0.7,0.1c-0.4,0-0.7-0.1-1-0.3c-0.3-0.2-0.4-0.5-0.4-0.9v-1.8c-0.6,1-1.3,1.8-2.3,2.3C88.2,33,87.2,33.3,86.1,33.3z
		"/>
	<path d="M107.3,33h-1.7v-7.1c0-1.5-0.2-2.6-0.7-3.3c-0.4-0.7-1.1-1-2.1-1c-0.5,0-1,0.1-1.5,0.3c-0.5,0.2-0.9,0.4-1.4,0.8
		c-0.4,0.3-0.8,0.7-1.1,1.2c-0.3,0.4-0.6,0.9-0.7,1.5V33h-1.7V20.3h1.5v2.9c0.3-0.5,0.6-0.9,1-1.3c0.4-0.4,0.8-0.7,1.3-1
		c0.5-0.3,1-0.5,1.5-0.6c0.5-0.1,1.1-0.2,1.6-0.2c0.7,0,1.3,0.1,1.8,0.4c0.5,0.3,0.9,0.6,1.2,1.1c0.3,0.5,0.5,1,0.6,1.7
		c0.1,0.7,0.2,1.4,0.2,2.3V33z"/>
	<path d="M110.8,17.6v-2.4h1.7v2.4H110.8z M110.8,33V20.3h1.7V33H110.8z"/>
	<path d="M122.1,32.4c-0.1,0-0.2,0.1-0.4,0.2c-0.2,0.1-0.4,0.2-0.6,0.2c-0.2,0.1-0.5,0.2-0.8,0.2c-0.3,0.1-0.6,0.1-1,0.1
		c-0.4,0-0.7,0-1-0.1c-0.3-0.1-0.6-0.2-0.9-0.5c-0.2-0.2-0.4-0.5-0.6-0.8c-0.1-0.3-0.2-0.7-0.2-1.1v-9.1h-1.8v-1.3h1.8V16h1.7v4.3
		h2.9v1.3h-2.9v8.6c0,0.5,0.2,0.8,0.5,1c0.3,0.2,0.6,0.3,1,0.3c0.5,0,0.9-0.1,1.2-0.2c0.4-0.2,0.6-0.3,0.7-0.3L122.1,32.4z"/>
	<path d="M124.8,36.9c0.1,0,0.2,0,0.2,0c0.1,0,0.2,0,0.2,0c0.2,0,0.3,0,0.5,0c0.2,0,0.3-0.1,0.4-0.1c0.1,0,0.2-0.1,0.3-0.2
		c0.1-0.1,0.2-0.3,0.3-0.6c0.1-0.3,0.3-0.6,0.5-1.1c0.2-0.5,0.5-1.1,0.8-1.9l-5.5-12.7h1.7l4.7,11.2l4.3-11.2h1.6l-6.6,16.4
		c-0.2,0.6-0.6,1-1,1.3s-1,0.4-1.7,0.4c-0.3,0-0.6,0-0.8-0.1V36.9z"/>
</g>
<g>
	<path d="M70.9,40.2c0-0.5,0.1-1,0.3-1.6c0.2-0.5,0.4-1,0.8-1.4c0.3-0.4,0.8-0.7,1.3-1c0.5-0.3,1.1-0.4,1.7-0.4c0.8,0,1.4,0.2,2,0.5
		c0.5,0.4,0.9,0.8,1.2,1.4l-0.4,0.2c-0.2-0.3-0.4-0.6-0.6-0.8c-0.2-0.2-0.4-0.4-0.7-0.5c-0.3-0.1-0.5-0.2-0.8-0.3
		c-0.3-0.1-0.5-0.1-0.8-0.1c-0.6,0-1.1,0.1-1.5,0.3c-0.5,0.2-0.8,0.5-1.1,0.9c-0.3,0.4-0.5,0.8-0.7,1.3c-0.2,0.5-0.2,0.9-0.2,1.4
		c0,0.5,0.1,1,0.3,1.5c0.2,0.5,0.4,0.9,0.8,1.3c0.3,0.4,0.7,0.7,1.2,0.9c0.4,0.2,0.9,0.3,1.4,0.3c0.3,0,0.6,0,0.8-0.1
		c0.3-0.1,0.6-0.2,0.8-0.3c0.3-0.1,0.5-0.3,0.7-0.5c0.2-0.2,0.4-0.5,0.6-0.8l0.4,0.1c-0.1,0.3-0.3,0.6-0.6,0.9
		c-0.3,0.3-0.5,0.5-0.8,0.6c-0.3,0.2-0.6,0.3-1,0.4c-0.3,0.1-0.7,0.1-1,0.1c-0.6,0-1.1-0.1-1.6-0.4c-0.5-0.3-0.9-0.6-1.3-1
		c-0.4-0.4-0.6-0.9-0.8-1.4C71,41.2,70.9,40.7,70.9,40.2z"/>
	<path d="M86.6,35.9v8.7h-0.4v-4.2h-5.8v4.2H80v-8.7h0.4v4h5.8v-4H86.6z"/>
	<path d="M92.4,44.2c0.6,0,1.1-0.1,1.5-0.3c0.4-0.2,0.7-0.5,1-0.9c0.2-0.4,0.4-0.8,0.5-1.3c0.1-0.5,0.1-1,0.1-1.4v-4.3H96v4.3
		c0,0.6-0.1,1.1-0.2,1.7c-0.1,0.5-0.3,1-0.6,1.4c-0.3,0.4-0.6,0.7-1.1,1c-0.5,0.2-1,0.4-1.7,0.4c-0.7,0-1.3-0.1-1.7-0.4
		c-0.5-0.3-0.8-0.6-1.1-1c-0.3-0.4-0.5-0.9-0.6-1.4c-0.1-0.5-0.2-1.1-0.2-1.6v-4.3h0.4v4.3c0,0.5,0,1,0.1,1.5
		c0.1,0.5,0.3,0.9,0.5,1.3c0.2,0.4,0.6,0.7,1,0.9C91.3,44.1,91.8,44.2,92.4,44.2z"/>
	<path d="M98.3,44.5v-8.7h3.6c0.4,0,0.7,0.1,1,0.2c0.3,0.2,0.6,0.4,0.8,0.6c0.2,0.2,0.4,0.5,0.5,0.8c0.1,0.3,0.2,0.6,0.2,1
		c0,0.3-0.1,0.7-0.2,1c-0.1,0.3-0.2,0.6-0.4,0.8c-0.2,0.2-0.4,0.4-0.7,0.6c-0.3,0.2-0.5,0.2-0.9,0.3l2.2,3.4h-0.5l-2.2-3.3h-3v3.3
		H98.3z M98.7,40.8h3.2c0.3,0,0.6-0.1,0.8-0.2c0.2-0.1,0.5-0.3,0.6-0.5c0.2-0.2,0.3-0.5,0.4-0.7c0.1-0.3,0.1-0.6,0.1-0.8
		c0-0.3-0.1-0.6-0.2-0.8c-0.1-0.3-0.3-0.5-0.4-0.7c-0.2-0.2-0.4-0.4-0.7-0.5c-0.2-0.1-0.5-0.2-0.8-0.2h-3.1V40.8z"/>
	<path d="M105.6,40.2c0-0.5,0.1-1,0.3-1.6c0.2-0.5,0.4-1,0.8-1.4c0.3-0.4,0.8-0.7,1.3-1c0.5-0.3,1.1-0.4,1.7-0.4
		c0.8,0,1.4,0.2,2,0.5c0.5,0.4,0.9,0.8,1.2,1.4l-0.4,0.2c-0.2-0.3-0.4-0.6-0.6-0.8c-0.2-0.2-0.4-0.4-0.7-0.5
		c-0.3-0.1-0.5-0.2-0.8-0.3c-0.3-0.1-0.5-0.1-0.8-0.1c-0.6,0-1.1,0.1-1.5,0.3c-0.5,0.2-0.8,0.5-1.1,0.9c-0.3,0.4-0.5,0.8-0.7,1.3
		c-0.2,0.5-0.2,0.9-0.2,1.4c0,0.5,0.1,1,0.3,1.5c0.2,0.5,0.4,0.9,0.8,1.3c0.3,0.4,0.7,0.7,1.2,0.9c0.4,0.2,0.9,0.3,1.4,0.3
		c0.3,0,0.6,0,0.8-0.1c0.3-0.1,0.6-0.2,0.8-0.3c0.3-0.1,0.5-0.3,0.7-0.5c0.2-0.2,0.4-0.5,0.6-0.8l0.4,0.1c-0.1,0.3-0.3,0.6-0.6,0.9
		c-0.3,0.3-0.5,0.5-0.8,0.6c-0.3,0.2-0.6,0.3-1,0.4c-0.3,0.1-0.7,0.1-1,0.1c-0.6,0-1.1-0.1-1.6-0.4c-0.5-0.3-0.9-0.6-1.3-1
		c-0.4-0.4-0.6-0.9-0.8-1.4C105.7,41.2,105.6,40.7,105.6,40.2z"/>
	<path d="M121.3,35.9v8.7h-0.4v-4.2h-5.8v4.2h-0.4v-8.7h0.4v4h5.8v-4H121.3z"/>
</g>
</svg>
