<?xml version="1.0" encoding="utf-8"?>
<!-- Generator: Adobe Illustrator 18.1.1, SVG Export Plug-In . SVG Version: 6.00 Build 0)  -->
<svg version="1.1" id="Layer_1" xmlns="http://www.w3.org/2000/svg" xmlns:xlink="http://www.w3.org/1999/xlink" x="0px" y="0px"
	 viewBox="0 0 300 100" enable-background="new 0 0 300 100" xml:space="preserve">
<path fill="#5DA3A1" d="M293.8,70.8H4.7c-2.6,0-4.7-2.1-4.7-4.7l0-34.4C0,29.1,2.1,27,4.7,27h289.1c2.6,0,4.7,2.1,4.7,4.7v34.4
	C298.5,68.7,296.4,70.8,293.8,70.8z"/>
<g>
	<path fill="#FFFFFF" d="M10.1,47.3c0-1,0.2-2,0.5-2.9c0.4-1,0.9-1.8,1.6-2.6c0.7-0.8,1.5-1.4,2.5-1.9c1-0.5,2.2-0.7,3.5-0.7
		c1.5,0,2.8,0.3,3.9,1c1.1,0.7,1.9,1.5,2.4,2.6l-0.5,0.1c-0.3-0.6-0.7-1.1-1.2-1.5c-0.4-0.4-0.9-0.7-1.5-1c-0.5-0.3-1.1-0.4-1.6-0.6
		c-0.6-0.1-1.1-0.2-1.7-0.2c-1.2,0-2.3,0.2-3.2,0.7c-0.9,0.5-1.7,1-2.4,1.8c-0.6,0.7-1.1,1.6-1.5,2.5c-0.3,0.9-0.5,1.9-0.5,2.8
		c0,1,0.2,2,0.6,3c0.4,0.9,0.9,1.8,1.6,2.5c0.7,0.7,1.5,1.3,2.4,1.7c0.9,0.4,1.9,0.6,3,0.6c0.6,0,1.1-0.1,1.7-0.2
		c0.6-0.1,1.2-0.3,1.7-0.6c0.6-0.3,1.1-0.6,1.6-1.1c0.5-0.4,0.9-1,1.2-1.5l0.5,0.1c-0.3,0.6-0.7,1.2-1.2,1.6
		c-0.5,0.5-1.1,0.9-1.7,1.2c-0.6,0.3-1.3,0.6-2,0.7c-0.7,0.2-1.4,0.2-2,0.2c-1.2,0-2.2-0.2-3.2-0.7c-1-0.5-1.8-1.1-2.5-1.9
		c-0.7-0.8-1.3-1.7-1.7-2.7C10.3,49.4,10.1,48.4,10.1,47.3z"/>
	<path fill="#FFFFFF" d="M37.7,55.6h-0.5V49c0-3.3-1.2-5-3.5-5c-0.6,0-1.2,0.1-1.7,0.3c-0.6,0.2-1.1,0.5-1.6,0.9s-0.9,0.8-1.2,1.3
		c-0.4,0.5-0.6,1-0.8,1.6v7.5h-0.5V38.8h0.5v7.9c0.3-0.5,0.6-0.9,1-1.3c0.4-0.4,0.8-0.7,1.3-1c0.5-0.3,1-0.5,1.5-0.7
		c0.5-0.2,1.1-0.2,1.6-0.2c1.3,0,2.3,0.5,3,1.4c0.7,0.9,1,2.3,1,4.1V55.6z"/>
	<path fill="#FFFFFF" d="M46.9,44.1c-1.2,0-2.2,0.4-3.1,1.1c-0.9,0.7-1.5,1.6-1.8,2.8v7.5h-0.5V43.7H42v3.1c0.4-0.8,1-1.5,1.8-2.1
		c0.7-0.5,1.5-0.9,2.3-1c0.2,0,0.3,0,0.4,0c0.1,0,0.3,0,0.4,0V44.1z"/>
	<path fill="#FFFFFF" d="M49.4,40.6v-1.8h0.5v1.8H49.4z M49.4,55.6V43.7h0.5v11.9H49.4z"/>
	<path fill="#FFFFFF" d="M57.6,55.8c-2,0-3.6-0.6-4.8-1.9l0.4-0.3c0.6,0.6,1.3,1,2,1.3c0.7,0.3,1.5,0.4,2.4,0.4c1.2,0,2.3-0.3,3-0.8
		s1.2-1.2,1.2-2.1c0-0.4-0.1-0.8-0.3-1.1c-0.2-0.3-0.5-0.5-0.8-0.7c-0.4-0.2-0.8-0.4-1.4-0.5c-0.6-0.1-1.2-0.3-1.9-0.4
		c-0.7-0.2-1.3-0.3-1.8-0.4c-0.5-0.1-0.9-0.3-1.2-0.5c-0.3-0.2-0.6-0.4-0.8-0.7c-0.2-0.3-0.3-0.7-0.3-1.2c0-0.6,0.1-1.1,0.4-1.5
		c0.2-0.4,0.6-0.8,1-1c0.4-0.3,0.9-0.5,1.4-0.6c0.5-0.1,1.1-0.2,1.7-0.2c1,0,1.9,0.2,2.6,0.5c0.7,0.3,1.2,0.7,1.5,1.2l-0.4,0.2
		c-0.3-0.5-0.8-0.8-1.5-1.1c-0.7-0.2-1.4-0.4-2.3-0.4c-0.5,0-1,0.1-1.5,0.2c-0.5,0.1-0.9,0.3-1.2,0.5c-0.4,0.2-0.6,0.5-0.8,0.9
		c-0.2,0.4-0.3,0.8-0.3,1.3c0,0.4,0.1,0.7,0.2,1c0.1,0.3,0.4,0.5,0.6,0.6c0.3,0.2,0.7,0.3,1.1,0.4c0.5,0.1,1,0.3,1.6,0.4
		c0.7,0.2,1.4,0.3,2,0.5c0.6,0.2,1.1,0.3,1.5,0.6c0.4,0.2,0.7,0.5,1,0.8c0.2,0.3,0.3,0.8,0.3,1.3c0,0.5-0.1,1-0.3,1.4
		c-0.2,0.4-0.5,0.8-0.9,1.1c-0.4,0.3-0.9,0.5-1.5,0.7C59,55.7,58.3,55.8,57.6,55.8z"/>
	<path fill="#FFFFFF" d="M70.3,55.1c-0.2,0.2-0.5,0.3-0.7,0.3c-0.2,0.1-0.4,0.1-0.7,0.2c-0.3,0.1-0.6,0.1-0.9,0.1
		c-0.6,0-1.1-0.2-1.5-0.5c-0.4-0.3-0.7-0.8-0.7-1.3v-9.7H64v-0.5h1.8v-4.2h0.5v4.2h3v0.5h-3v9.7c0,0.4,0.2,0.8,0.5,1
		c0.4,0.2,0.7,0.4,1.2,0.4c0.3,0,0.5,0,0.8-0.1c0.2-0.1,0.5-0.1,0.6-0.2c0.2-0.1,0.3-0.1,0.4-0.2c0.1-0.1,0.2-0.1,0.2-0.1L70.3,55.1
		z"/>
	<path fill="#FFFFFF" d="M78.3,47.3c0-1,0.2-2,0.5-2.9c0.4-1,0.9-1.8,1.6-2.6c0.7-0.8,1.5-1.4,2.5-1.9c1-0.5,2.2-0.7,3.5-0.7
		c1.5,0,2.8,0.3,3.9,1c1.1,0.7,1.9,1.5,2.4,2.6l-0.5,0.1c-0.3-0.6-0.7-1.1-1.2-1.5c-0.4-0.4-0.9-0.7-1.5-1c-0.5-0.3-1.1-0.4-1.6-0.6
		c-0.6-0.1-1.1-0.2-1.7-0.2c-1.2,0-2.3,0.2-3.2,0.7c-0.9,0.5-1.7,1-2.4,1.8c-0.6,0.7-1.1,1.6-1.5,2.5c-0.3,0.9-0.5,1.9-0.5,2.8
		c0,1,0.2,2,0.6,3c0.4,0.9,0.9,1.8,1.6,2.5c0.7,0.7,1.5,1.3,2.4,1.7c0.9,0.4,1.9,0.6,3,0.6c0.6,0,1.1-0.1,1.7-0.2s1.2-0.3,1.7-0.6
		c0.6-0.3,1.1-0.6,1.6-1.1c0.5-0.4,0.9-1,1.2-1.5l0.5,0.1c-0.3,0.6-0.7,1.2-1.2,1.6c-0.5,0.5-1.1,0.9-1.7,1.2
		c-0.6,0.3-1.3,0.6-2,0.7c-0.7,0.2-1.4,0.2-2,0.2c-1.2,0-2.2-0.2-3.2-0.7c-1-0.5-1.8-1.1-2.5-1.9c-0.7-0.8-1.3-1.7-1.7-2.7
		C78.5,49.4,78.3,48.4,78.3,47.3z"/>
	<path fill="#FFFFFF" d="M101.2,55.8c-0.8,0-1.6-0.2-2.3-0.5C98.2,55,97.5,54.6,97,54c-0.5-0.6-1-1.2-1.3-2
		c-0.3-0.7-0.5-1.5-0.5-2.4c0-0.8,0.2-1.6,0.5-2.4c0.3-0.7,0.7-1.4,1.3-2c0.5-0.6,1.2-1,1.9-1.3c0.7-0.3,1.5-0.5,2.3-0.5
		c0.8,0,1.6,0.2,2.3,0.5c0.7,0.3,1.4,0.8,1.9,1.3c0.5,0.6,1,1.2,1.3,2c0.3,0.7,0.5,1.5,0.5,2.4c0,0.8-0.2,1.6-0.5,2.4
		c-0.3,0.7-0.7,1.4-1.3,2c-0.5,0.6-1.2,1-1.9,1.3C102.8,55.7,102,55.8,101.2,55.8z M95.7,49.7c0,0.8,0.1,1.5,0.4,2.2
		c0.3,0.7,0.7,1.3,1.2,1.8c0.5,0.5,1.1,0.9,1.7,1.2c0.7,0.3,1.4,0.4,2.1,0.4c0.7,0,1.5-0.2,2.1-0.5c0.7-0.3,1.3-0.7,1.8-1.2
		s0.9-1.1,1.2-1.8c0.3-0.7,0.4-1.4,0.4-2.2c0-0.8-0.1-1.5-0.4-2.2c-0.3-0.7-0.7-1.3-1.2-1.8c-0.5-0.5-1.1-0.9-1.8-1.2
		c-0.7-0.3-1.4-0.5-2.1-0.5c-0.7,0-1.5,0.2-2.1,0.5c-0.7,0.3-1.3,0.7-1.8,1.3c-0.5,0.5-0.9,1.1-1.2,1.8
		C95.8,48.2,95.7,48.9,95.7,49.7z"/>
	<path fill="#FFFFFF" d="M128.5,55.6H128V49c0-1.7-0.3-3-0.8-3.8c-0.5-0.8-1.4-1.2-2.6-1.2c-0.6,0-1.2,0.1-1.7,0.3
		c-0.5,0.2-1,0.5-1.4,0.9c-0.4,0.4-0.8,0.8-1.1,1.3c-0.3,0.5-0.6,1.1-0.7,1.7v7.5h-0.5V49c0-1.7-0.3-3-0.8-3.8
		c-0.5-0.8-1.4-1.2-2.5-1.2c-0.6,0-1.1,0.1-1.7,0.3c-0.5,0.2-1,0.5-1.4,0.8c-0.4,0.4-0.8,0.8-1.1,1.3c-0.3,0.5-0.6,1.1-0.8,1.7v7.5
		h-0.5V43.7h0.5v3.1c0.5-1,1.2-1.8,2.1-2.4c0.9-0.6,1.8-0.8,2.8-0.8c1.1,0,1.9,0.3,2.6,0.9c0.7,0.6,1.1,1.5,1.2,2.5
		c1.3-2.3,2.9-3.5,5-3.5c1.3,0,2.3,0.4,2.9,1.3c0.6,0.9,0.9,2.3,0.9,4.1V55.6z"/>
	<path fill="#FFFFFF" d="M150.5,55.6H150V49c0-1.7-0.3-3-0.8-3.8c-0.5-0.8-1.4-1.2-2.6-1.2c-0.6,0-1.2,0.1-1.7,0.3
		c-0.5,0.2-1,0.5-1.4,0.9c-0.4,0.4-0.8,0.8-1.1,1.3c-0.3,0.5-0.6,1.1-0.7,1.7v7.5h-0.5V49c0-1.7-0.3-3-0.8-3.8
		c-0.5-0.8-1.4-1.2-2.5-1.2c-0.6,0-1.1,0.1-1.7,0.3c-0.5,0.2-1,0.5-1.4,0.8c-0.4,0.4-0.8,0.8-1.1,1.3c-0.3,0.5-0.6,1.1-0.8,1.7v7.5
		h-0.5V43.7h0.5v3.1c0.5-1,1.2-1.8,2.1-2.4c0.9-0.6,1.8-0.8,2.8-0.8c1.1,0,1.9,0.3,2.6,0.9c0.7,0.6,1.1,1.5,1.2,2.5
		c1.3-2.3,2.9-3.5,5-3.5c1.3,0,2.3,0.4,2.9,1.3s0.9,2.3,0.9,4.1V55.6z"/>
	<path fill="#FFFFFF" d="M158.3,55.8c-2.7,0-4.1-1.8-4.1-5.5v-6.7h0.5v6.7c0,3.3,1.2,5,3.6,5c0.6,0,1.2-0.1,1.8-0.3
		c0.6-0.2,1.1-0.5,1.6-0.8c0.5-0.4,0.9-0.8,1.3-1.3c0.4-0.5,0.6-1.1,0.8-1.7v-7.6h0.5v11c0,0.3,0.1,0.5,0.4,0.5v0.5
		c-0.2,0-0.3,0-0.3,0c-0.2-0.1-0.3-0.2-0.4-0.3c-0.1-0.2-0.1-0.3-0.1-0.5v-2.1c-0.6,1-1.3,1.8-2.3,2.4
		C160.4,55.5,159.4,55.8,158.3,55.8z"/>
	<path fill="#FFFFFF" d="M178.1,55.6h-0.5V49c0-1.7-0.3-3-0.8-3.8c-0.5-0.8-1.3-1.2-2.5-1.2c-0.6,0-1.2,0.1-1.8,0.3
		c-0.6,0.2-1.1,0.5-1.6,0.9c-0.5,0.4-0.9,0.8-1.3,1.3c-0.4,0.5-0.6,1-0.8,1.6v7.5h-0.5V43.7h0.5v3.1c0.3-0.5,0.6-0.9,1-1.3
		c0.4-0.4,0.8-0.7,1.3-1c0.5-0.3,1-0.5,1.6-0.7c0.6-0.2,1.1-0.2,1.7-0.2c1.3,0,2.2,0.4,2.8,1.3c0.6,0.9,0.9,2.3,0.9,4.1V55.6z"/>
	<path fill="#FFFFFF" d="M181.9,40.6v-1.8h0.5v1.8H181.9z M181.9,55.6V43.7h0.5v11.9H181.9z"/>
	<path fill="#FFFFFF" d="M191.4,55.1c-0.2,0.2-0.5,0.3-0.7,0.3c-0.2,0.1-0.4,0.1-0.7,0.2c-0.3,0.1-0.6,0.1-0.9,0.1
		c-0.6,0-1.1-0.2-1.5-0.5c-0.4-0.3-0.7-0.8-0.7-1.3v-9.7h-1.8v-0.5h1.8v-4.2h0.5v4.2h3v0.5h-3v9.7c0,0.4,0.2,0.8,0.5,1
		c0.4,0.2,0.7,0.4,1.2,0.4c0.3,0,0.5,0,0.8-0.1c0.2-0.1,0.5-0.1,0.6-0.2c0.2-0.1,0.3-0.1,0.4-0.2c0.1-0.1,0.2-0.1,0.2-0.1
		L191.4,55.1z"/>
	<path fill="#FFFFFF" d="M194.7,60.3c0.3,0,0.5,0,0.7-0.1s0.3-0.1,0.4-0.2c0,0,0.1-0.1,0.1-0.2c0.1-0.1,0.2-0.3,0.3-0.7
		c0.2-0.3,0.4-0.8,0.6-1.3c0.3-0.6,0.6-1.3,1-2.2l-5.9-11.9h0.5l5.6,11.3l5.3-11.3h0.5l-7.5,16.2c-0.2,0.4-0.5,0.7-0.8,0.7
		c-0.3,0.1-0.7,0.1-1,0.1V60.3z"/>
	<path fill="#FFFFFF" d="M211.8,47.3c0-1,0.2-2,0.5-2.9c0.4-1,0.9-1.8,1.6-2.6c0.7-0.8,1.5-1.4,2.5-1.9c1-0.5,2.2-0.7,3.5-0.7
		c1.5,0,2.8,0.3,3.9,1c1.1,0.7,1.9,1.5,2.4,2.6l-0.5,0.1c-0.3-0.6-0.7-1.1-1.2-1.5c-0.4-0.4-0.9-0.7-1.5-1c-0.5-0.3-1.1-0.4-1.6-0.6
		c-0.6-0.1-1.1-0.2-1.7-0.2c-1.2,0-2.3,0.2-3.2,0.7c-0.9,0.5-1.7,1-2.4,1.8c-0.6,0.7-1.1,1.6-1.5,2.5c-0.3,0.9-0.5,1.9-0.5,2.8
		c0,1,0.2,2,0.6,3c0.4,0.9,0.9,1.8,1.6,2.5c0.7,0.7,1.5,1.3,2.4,1.7c0.9,0.4,1.9,0.6,3,0.6c0.6,0,1.1-0.1,1.7-0.2
		c0.6-0.1,1.2-0.3,1.7-0.6c0.6-0.3,1.1-0.6,1.6-1.1c0.5-0.4,0.9-1,1.2-1.5l0.5,0.1c-0.3,0.6-0.7,1.2-1.2,1.6
		c-0.5,0.5-1.1,0.9-1.7,1.2c-0.6,0.3-1.3,0.6-2,0.7c-0.7,0.2-1.4,0.2-2,0.2c-1.2,0-2.2-0.2-3.2-0.7c-1-0.5-1.8-1.1-2.5-1.9
		c-0.7-0.8-1.3-1.7-1.7-2.7C212,49.4,211.8,48.4,211.8,47.3z"/>
	<path fill="#FFFFFF" d="M239.4,55.6h-0.5V49c0-3.3-1.2-5-3.5-5c-0.6,0-1.2,0.1-1.7,0.3c-0.6,0.2-1.1,0.5-1.6,0.9
		c-0.5,0.4-0.9,0.8-1.3,1.3c-0.4,0.5-0.6,1-0.8,1.6v7.5h-0.5V38.8h0.5v7.9c0.3-0.5,0.6-0.9,1-1.3c0.4-0.4,0.8-0.7,1.3-1
		c0.5-0.3,1-0.5,1.5-0.7c0.5-0.2,1.1-0.2,1.6-0.2c1.3,0,2.3,0.5,3,1.4c0.7,0.9,1,2.3,1,4.1V55.6z"/>
	<path fill="#FFFFFF" d="M247.2,55.8c-2.7,0-4.1-1.8-4.1-5.5v-6.7h0.5v6.7c0,3.3,1.2,5,3.6,5c0.6,0,1.2-0.1,1.8-0.3
		c0.6-0.2,1.1-0.5,1.6-0.8c0.5-0.4,0.9-0.8,1.3-1.3c0.4-0.5,0.6-1.1,0.8-1.7v-7.6h0.5v11c0,0.3,0.1,0.5,0.4,0.5v0.5
		c-0.2,0-0.3,0-0.3,0c-0.2-0.1-0.3-0.2-0.4-0.3c-0.1-0.2-0.1-0.3-0.1-0.5v-2.1c-0.6,1-1.3,1.8-2.3,2.4
		C249.4,55.5,248.3,55.8,247.2,55.8z"/>
	<path fill="#FFFFFF" d="M262.6,44.1c-1.2,0-2.2,0.4-3.1,1.1c-0.9,0.7-1.5,1.6-1.8,2.8v7.5h-0.5V43.7h0.5v3.1c0.4-0.8,1-1.5,1.8-2.1
		c0.7-0.5,1.5-0.9,2.3-1c0.2,0,0.3,0,0.5,0c0.1,0,0.3,0,0.4,0V44.1z"/>
	<path fill="#FFFFFF" d="M263.5,49.6c0-0.9,0.2-1.7,0.5-2.4c0.3-0.7,0.7-1.4,1.3-1.9c0.6-0.5,1.2-1,1.9-1.3c0.7-0.3,1.5-0.5,2.4-0.5
		c1.1,0,2,0.2,2.9,0.7c0.8,0.5,1.5,1.1,1.9,2l-0.5,0.2c-0.4-0.7-1-1.3-1.8-1.7c-0.8-0.4-1.6-0.6-2.5-0.6c-0.8,0-1.5,0.1-2.2,0.4
		c-0.7,0.3-1.2,0.7-1.7,1.2c-0.5,0.5-0.9,1.1-1.2,1.8c-0.3,0.7-0.4,1.4-0.4,2.2s0.1,1.5,0.4,2.2c0.3,0.7,0.7,1.3,1.2,1.8
		c0.5,0.5,1.1,0.9,1.8,1.3c0.7,0.3,1.4,0.5,2.1,0.5c0.5,0,1-0.1,1.5-0.2c0.5-0.1,0.9-0.3,1.4-0.6c0.4-0.2,0.8-0.5,1.1-0.8
		c0.3-0.3,0.5-0.6,0.6-0.9l0.5,0.1c-0.1,0.4-0.4,0.8-0.7,1.1c-0.3,0.3-0.7,0.6-1.1,0.9c-0.4,0.3-0.9,0.5-1.4,0.6s-1.1,0.2-1.6,0.2
		c-0.8,0-1.6-0.2-2.4-0.5c-0.7-0.3-1.4-0.8-1.9-1.3c-0.6-0.6-1-1.2-1.3-2C263.6,51.2,263.5,50.4,263.5,49.6z"/>
	<path fill="#FFFFFF" d="M287.2,55.6h-0.5V49c0-3.3-1.2-5-3.5-5c-0.6,0-1.2,0.1-1.7,0.3c-0.6,0.2-1.1,0.5-1.6,0.9
		c-0.5,0.4-0.9,0.8-1.3,1.3s-0.6,1-0.8,1.6v7.5h-0.5V38.8h0.5v7.9c0.3-0.5,0.6-0.9,1-1.3c0.4-0.4,0.8-0.7,1.3-1
		c0.5-0.3,1-0.5,1.5-0.7c0.5-0.2,1.1-0.2,1.6-0.2c1.3,0,2.3,0.5,3,1.4c0.7,0.9,1,2.3,1,4.1V55.6z"/>
</g>
</svg>
