<?xml version="1.0" encoding="utf-8"?>
<!-- Generator: Adobe Illustrator 18.1.1, SVG Export Plug-In . SVG Version: 6.00 Build 0)  -->
<svg version="1.1" id="Layer_1" xmlns="http://www.w3.org/2000/svg" xmlns:xlink="http://www.w3.org/1999/xlink" x="0px" y="0px"
	 viewBox="0 0 300 100" enable-background="new 0 0 300 100" xml:space="preserve">
<g>
	<path d="M35.5,51.2c0-0.9,0.2-1.7,0.5-2.6c0.3-0.8,0.7-1.6,1.3-2.3c0.6-0.7,1.3-1.2,2.1-1.6c0.8-0.4,1.8-0.6,2.9-0.6
		c1.3,0,2.4,0.3,3.2,0.9c0.9,0.6,1.5,1.3,2,2.2l-0.4,0.1c-0.3-0.5-0.6-1-1-1.3c-0.4-0.4-0.8-0.7-1.2-0.9c-0.4-0.2-0.9-0.4-1.3-0.5
		s-0.9-0.2-1.4-0.2c-1,0-1.9,0.2-2.7,0.6c-0.8,0.4-1.4,0.9-2,1.6c-0.5,0.6-0.9,1.4-1.2,2.2s-0.4,1.6-0.4,2.4c0,0.9,0.2,1.8,0.5,2.6
		c0.3,0.8,0.8,1.6,1.3,2.2c0.6,0.6,1.2,1.1,2,1.5c0.8,0.4,1.6,0.6,2.5,0.6c0.5,0,1-0.1,1.4-0.2c0.5-0.1,1-0.3,1.4-0.5
		c0.5-0.2,0.9-0.6,1.3-0.9c0.4-0.4,0.7-0.8,1-1.4l0.4,0.1c-0.2,0.5-0.6,1-1,1.4c-0.4,0.4-0.9,0.8-1.4,1c-0.5,0.3-1,0.5-1.6,0.6
		c-0.6,0.1-1.1,0.2-1.7,0.2c-1,0-1.9-0.2-2.7-0.6c-0.8-0.4-1.5-1-2.1-1.7c-0.6-0.7-1-1.5-1.4-2.4C35.7,53,35.5,52.1,35.5,51.2z"/>
	<path d="M58.4,58.5H58v-5.8c0-2.9-1-4.4-2.9-4.4c-0.5,0-1,0.1-1.4,0.3c-0.5,0.2-0.9,0.4-1.3,0.8s-0.7,0.7-1,1.1
		c-0.3,0.4-0.5,0.9-0.6,1.4v6.6h-0.4V43.8h0.4v6.9c0.2-0.4,0.5-0.8,0.8-1.2c0.3-0.4,0.7-0.7,1-0.9s0.8-0.4,1.2-0.6
		c0.4-0.1,0.9-0.2,1.3-0.2c1.1,0,1.9,0.4,2.5,1.2c0.6,0.8,0.8,2,0.8,3.6V58.5z"/>
	<path d="M66,48.4c-1,0-1.8,0.4-2.6,1c-0.7,0.6-1.2,1.4-1.5,2.5v6.6h-0.4V48H62v2.7c0.4-0.7,0.8-1.3,1.5-1.8
		c0.6-0.5,1.3-0.8,1.9-0.8c0.1,0,0.3,0,0.4,0c0.1,0,0.2,0,0.3,0V48.4z"/>
	<path d="M68.1,45.3v-1.5h0.4v1.5H68.1z M68.1,58.5V48h0.4v10.4H68.1z"/>
	<path d="M74.9,58.7c-1.6,0-3-0.6-4-1.7l0.3-0.3c0.5,0.5,1.1,0.9,1.7,1.2c0.6,0.3,1.2,0.4,2,0.4c1,0,1.9-0.2,2.5-0.7
		c0.6-0.4,1-1.1,1-1.9c0-0.4-0.1-0.7-0.2-0.9c-0.2-0.2-0.4-0.5-0.7-0.6c-0.3-0.2-0.7-0.3-1.1-0.5c-0.5-0.1-1-0.3-1.6-0.4
		c-0.6-0.1-1.1-0.3-1.5-0.4c-0.4-0.1-0.8-0.3-1-0.4c-0.3-0.2-0.5-0.4-0.6-0.7c-0.1-0.3-0.2-0.6-0.2-1c0-0.5,0.1-1,0.3-1.3
		c0.2-0.4,0.5-0.7,0.8-0.9c0.3-0.2,0.7-0.4,1.2-0.5c0.4-0.1,0.9-0.2,1.4-0.2c0.8,0,1.6,0.1,2.2,0.4c0.6,0.3,1,0.6,1.2,1.1l-0.4,0.2
		c-0.3-0.4-0.7-0.7-1.2-0.9c-0.6-0.2-1.2-0.3-1.9-0.3c-0.4,0-0.8,0-1.2,0.1c-0.4,0.1-0.7,0.2-1,0.4c-0.3,0.2-0.5,0.5-0.7,0.8
		c-0.2,0.3-0.3,0.7-0.3,1.1c0,0.3,0.1,0.6,0.2,0.9c0.1,0.2,0.3,0.4,0.5,0.6c0.2,0.1,0.5,0.3,0.9,0.4c0.4,0.1,0.8,0.2,1.3,0.3
		c0.6,0.1,1.2,0.3,1.7,0.4s0.9,0.3,1.3,0.5c0.3,0.2,0.6,0.4,0.8,0.7c0.2,0.3,0.3,0.7,0.3,1.1c0,0.5-0.1,0.9-0.3,1.2
		c-0.2,0.4-0.4,0.7-0.8,0.9c-0.3,0.3-0.7,0.5-1.2,0.6C76,58.6,75.5,58.7,74.9,58.7z"/>
	<path d="M85.4,58c-0.2,0.1-0.4,0.2-0.6,0.3c-0.2,0.1-0.4,0.1-0.6,0.2c-0.2,0.1-0.5,0.1-0.8,0.1c-0.5,0-0.9-0.1-1.3-0.4
		c-0.4-0.3-0.5-0.7-0.5-1.2v-8.5h-1.5V48h1.5v-3.6h0.4V48h2.5v0.4h-2.5V57c0,0.4,0.1,0.7,0.4,0.9c0.3,0.2,0.6,0.3,1,0.3
		c0.2,0,0.4,0,0.6-0.1c0.2,0,0.4-0.1,0.5-0.2c0.2-0.1,0.3-0.1,0.4-0.2c0.1-0.1,0.1-0.1,0.2-0.1L85.4,58z"/>
	<path d="M92,51.2c0-0.9,0.2-1.7,0.5-2.6c0.3-0.8,0.7-1.6,1.3-2.3c0.6-0.7,1.3-1.2,2.1-1.6c0.8-0.4,1.8-0.6,2.9-0.6
		c1.3,0,2.4,0.3,3.2,0.9c0.9,0.6,1.5,1.3,2,2.2l-0.4,0.1c-0.3-0.5-0.6-1-1-1.3c-0.4-0.4-0.8-0.7-1.2-0.9c-0.4-0.2-0.9-0.4-1.3-0.5
		s-0.9-0.2-1.4-0.2c-1,0-1.9,0.2-2.7,0.6c-0.8,0.4-1.4,0.9-2,1.6c-0.5,0.6-0.9,1.4-1.2,2.2c-0.3,0.8-0.4,1.6-0.4,2.4
		c0,0.9,0.2,1.8,0.5,2.6c0.3,0.8,0.8,1.6,1.3,2.2c0.6,0.6,1.2,1.1,2,1.5c0.8,0.4,1.6,0.6,2.5,0.6c0.5,0,1-0.1,1.4-0.2s1-0.3,1.4-0.5
		c0.5-0.2,0.9-0.6,1.3-0.9c0.4-0.4,0.7-0.8,1-1.4l0.4,0.1c-0.2,0.5-0.6,1-1,1.4c-0.4,0.4-0.9,0.8-1.4,1c-0.5,0.3-1,0.5-1.6,0.6
		c-0.6,0.1-1.1,0.2-1.7,0.2c-1,0-1.9-0.2-2.7-0.6c-0.8-0.4-1.5-1-2.1-1.7c-0.6-0.7-1-1.5-1.4-2.4C92.2,53,92,52.1,92,51.2z"/>
	<path d="M111,58.7c-0.7,0-1.3-0.1-1.9-0.4c-0.6-0.3-1.1-0.7-1.6-1.2c-0.4-0.5-0.8-1.1-1.1-1.7c-0.3-0.7-0.4-1.3-0.4-2.1
		c0-0.7,0.1-1.4,0.4-2.1s0.6-1.2,1.1-1.7c0.5-0.5,1-0.9,1.6-1.2c0.6-0.3,1.2-0.4,1.9-0.4s1.3,0.1,1.9,0.4c0.6,0.3,1.1,0.7,1.6,1.2
		c0.4,0.5,0.8,1.1,1.1,1.7c0.3,0.7,0.4,1.3,0.4,2.1c0,0.7-0.1,1.4-0.4,2.1c-0.3,0.7-0.6,1.2-1.1,1.7c-0.4,0.5-1,0.9-1.6,1.2
		C112.4,58.5,111.7,58.7,111,58.7z M106.5,53.3c0,0.7,0.1,1.3,0.4,1.9c0.2,0.6,0.6,1.1,1,1.6c0.4,0.5,0.9,0.8,1.4,1.1
		c0.5,0.3,1.1,0.4,1.8,0.4c0.6,0,1.2-0.1,1.8-0.4c0.6-0.3,1-0.6,1.5-1.1c0.4-0.5,0.8-1,1-1.6c0.2-0.6,0.4-1.2,0.4-1.9
		c0-0.7-0.1-1.3-0.4-1.9c-0.2-0.6-0.6-1.1-1-1.6c-0.4-0.5-0.9-0.8-1.5-1.1c-0.6-0.3-1.1-0.4-1.8-0.4c-0.6,0-1.2,0.1-1.8,0.4
		c-0.6,0.3-1,0.6-1.5,1.1c-0.4,0.5-0.7,1-1,1.6C106.6,52,106.5,52.6,106.5,53.3z"/>
	<path d="M133.6,58.5h-0.4v-5.8c0-1.5-0.2-2.6-0.7-3.3c-0.4-0.7-1.2-1.1-2.1-1.1c-0.5,0-1,0.1-1.4,0.3c-0.4,0.2-0.8,0.4-1.2,0.8
		c-0.4,0.3-0.7,0.7-0.9,1.1c-0.3,0.4-0.5,0.9-0.6,1.4v6.6h-0.4v-5.8c0-1.5-0.2-2.6-0.7-3.3c-0.4-0.7-1.1-1.1-2.1-1.1
		c-0.5,0-0.9,0.1-1.4,0.3c-0.4,0.2-0.8,0.4-1.2,0.7c-0.4,0.3-0.7,0.7-0.9,1.1c-0.3,0.4-0.5,0.9-0.6,1.5v6.6h-0.4V48h0.4v2.7
		c0.5-0.9,1-1.6,1.7-2.1c0.7-0.5,1.5-0.7,2.3-0.7c0.9,0,1.6,0.3,2.2,0.8c0.6,0.6,0.9,1.3,1,2.2c1-2,2.4-3,4.2-3
		c1.1,0,1.9,0.4,2.4,1.2c0.5,0.8,0.8,2,0.8,3.6V58.5z"/>
	<path d="M151.9,58.5h-0.4v-5.8c0-1.5-0.2-2.6-0.7-3.3c-0.4-0.7-1.2-1.1-2.1-1.1c-0.5,0-1,0.1-1.4,0.3c-0.4,0.2-0.8,0.4-1.2,0.8
		c-0.4,0.3-0.7,0.7-0.9,1.1c-0.3,0.4-0.5,0.9-0.6,1.4v6.6h-0.4v-5.8c0-1.5-0.2-2.6-0.7-3.3c-0.4-0.7-1.1-1.1-2.1-1.1
		c-0.5,0-0.9,0.1-1.4,0.3c-0.4,0.2-0.8,0.4-1.2,0.7c-0.4,0.3-0.7,0.7-0.9,1.1c-0.3,0.4-0.5,0.9-0.6,1.5v6.6h-0.4V48h0.4v2.7
		c0.5-0.9,1-1.6,1.7-2.1c0.7-0.5,1.5-0.7,2.3-0.7c0.9,0,1.6,0.3,2.2,0.8c0.6,0.6,0.9,1.3,1,2.2c1-2,2.4-3,4.2-3
		c1.1,0,1.9,0.4,2.4,1.2c0.5,0.8,0.8,2,0.8,3.6V58.5z"/>
	<path d="M158.3,58.7c-2.2,0-3.4-1.6-3.4-4.8V48h0.4v5.9c0,2.9,1,4.4,3,4.4c0.5,0,1-0.1,1.5-0.3c0.5-0.2,0.9-0.4,1.3-0.7
		s0.8-0.7,1.1-1.1c0.3-0.4,0.5-0.9,0.7-1.4V48h0.4v9.6c0,0.3,0.1,0.4,0.3,0.4v0.4c-0.1,0-0.2,0-0.3,0c-0.1-0.1-0.2-0.1-0.3-0.3
		c-0.1-0.1-0.1-0.3-0.1-0.5v-1.9c-0.5,0.9-1.1,1.6-1.9,2.1C160.2,58.4,159.3,58.7,158.3,58.7z"/>
	<path d="M174.8,58.5h-0.4v-5.8c0-1.5-0.2-2.6-0.6-3.3c-0.4-0.7-1.1-1-2-1c-0.5,0-1,0.1-1.5,0.3c-0.5,0.2-0.9,0.4-1.4,0.8
		s-0.8,0.7-1.1,1.1c-0.3,0.4-0.5,0.9-0.7,1.4v6.6h-0.4V48h0.4v2.7c0.2-0.4,0.5-0.8,0.8-1.2c0.3-0.4,0.7-0.7,1.1-0.9
		c0.4-0.2,0.8-0.4,1.3-0.6c0.5-0.1,0.9-0.2,1.4-0.2c1.1,0,1.9,0.4,2.4,1.2c0.5,0.8,0.7,2,0.7,3.6V58.5z"/>
	<path d="M178,45.3v-1.5h0.4v1.5H178z M178,58.5V48h0.4v10.4H178z"/>
	<path d="M185.8,58c-0.2,0.1-0.4,0.2-0.6,0.3c-0.2,0.1-0.4,0.1-0.6,0.2s-0.5,0.1-0.8,0.1c-0.5,0-0.9-0.1-1.3-0.4
		c-0.4-0.3-0.5-0.7-0.5-1.2v-8.5h-1.5V48h1.5v-3.6h0.4V48h2.5v0.4h-2.5V57c0,0.4,0.1,0.7,0.4,0.9c0.3,0.2,0.6,0.3,1,0.3
		c0.2,0,0.4,0,0.6-0.1c0.2,0,0.4-0.1,0.5-0.2c0.2-0.1,0.3-0.1,0.4-0.2c0.1-0.1,0.1-0.1,0.2-0.1L185.8,58z"/>
	<path d="M188.6,62.5c0.2,0,0.4,0,0.6,0c0.2,0,0.3-0.1,0.3-0.1c0,0,0-0.1,0.1-0.2c0.1-0.1,0.2-0.3,0.3-0.6c0.1-0.3,0.3-0.7,0.5-1.2
		c0.2-0.5,0.5-1.1,0.8-1.9L186.4,48h0.4l4.6,9.9l4.4-9.9h0.4l-6.2,14.2c-0.2,0.4-0.4,0.6-0.7,0.6c-0.3,0.1-0.5,0.1-0.8,0.1V62.5z"/>
	<path d="M202.8,51.2c0-0.9,0.2-1.7,0.5-2.6c0.3-0.8,0.7-1.6,1.3-2.3c0.6-0.7,1.3-1.2,2.1-1.6c0.8-0.4,1.8-0.6,2.9-0.6
		c1.3,0,2.4,0.3,3.2,0.9c0.9,0.6,1.5,1.3,2,2.2l-0.4,0.1c-0.3-0.5-0.6-1-1-1.3c-0.4-0.4-0.8-0.7-1.2-0.9s-0.9-0.4-1.3-0.5
		c-0.5-0.1-0.9-0.2-1.4-0.2c-1,0-1.9,0.2-2.7,0.6c-0.8,0.4-1.4,0.9-2,1.6c-0.5,0.6-0.9,1.4-1.2,2.2c-0.3,0.8-0.4,1.6-0.4,2.4
		c0,0.9,0.2,1.8,0.5,2.6c0.3,0.8,0.8,1.6,1.3,2.2c0.6,0.6,1.2,1.1,2,1.5c0.8,0.4,1.6,0.6,2.5,0.6c0.5,0,1-0.1,1.4-0.2
		c0.5-0.1,1-0.3,1.4-0.5c0.5-0.2,0.9-0.6,1.3-0.9c0.4-0.4,0.7-0.8,1-1.4l0.4,0.1c-0.2,0.5-0.6,1-1,1.4c-0.4,0.4-0.9,0.8-1.4,1
		c-0.5,0.3-1.1,0.5-1.6,0.6c-0.6,0.1-1.1,0.2-1.7,0.2c-1,0-1.9-0.2-2.7-0.6c-0.8-0.4-1.5-1-2.1-1.7c-0.6-0.7-1-1.5-1.4-2.4
		C202.9,53,202.8,52.1,202.8,51.2z"/>
	<path d="M225.6,58.5h-0.4v-5.8c0-2.9-1-4.4-2.9-4.4c-0.5,0-1,0.1-1.4,0.3c-0.5,0.2-0.9,0.4-1.3,0.8c-0.4,0.3-0.7,0.7-1,1.1
		c-0.3,0.4-0.5,0.9-0.6,1.4v6.6h-0.4V43.8h0.4v6.9c0.2-0.4,0.5-0.8,0.8-1.2c0.3-0.4,0.7-0.7,1-0.9s0.8-0.4,1.2-0.6s0.9-0.2,1.3-0.2
		c1.1,0,1.9,0.4,2.5,1.2c0.6,0.8,0.8,2,0.8,3.6V58.5z"/>
	<path d="M232.1,58.7c-2.2,0-3.4-1.6-3.4-4.8V48h0.4v5.9c0,2.9,1,4.4,3,4.4c0.5,0,1-0.1,1.5-0.3c0.5-0.2,0.9-0.4,1.3-0.7
		s0.8-0.7,1.1-1.1c0.3-0.4,0.5-0.9,0.7-1.4V48h0.4v9.6c0,0.3,0.1,0.4,0.3,0.4v0.4c-0.1,0-0.2,0-0.3,0c-0.1-0.1-0.2-0.1-0.3-0.3
		c-0.1-0.1-0.1-0.3-0.1-0.5v-1.9c-0.5,0.9-1.1,1.6-1.9,2.1C233.9,58.4,233,58.7,232.1,58.7z"/>
	<path d="M244.9,48.4c-1,0-1.8,0.4-2.6,1c-0.7,0.6-1.2,1.4-1.5,2.5v6.6h-0.4V48h0.4v2.7c0.4-0.7,0.8-1.3,1.5-1.8
		c0.6-0.5,1.3-0.8,1.9-0.8c0.1,0,0.3,0,0.4,0c0.1,0,0.2,0,0.3,0V48.4z"/>
	<path d="M245.6,53.2c0-0.8,0.1-1.5,0.4-2.1c0.3-0.7,0.6-1.2,1.1-1.7c0.5-0.5,1-0.9,1.6-1.1c0.6-0.3,1.3-0.4,2-0.4
		c0.9,0,1.7,0.2,2.4,0.6c0.7,0.4,1.2,1,1.6,1.7l-0.4,0.1c-0.4-0.6-0.8-1.2-1.5-1.5c-0.6-0.4-1.3-0.6-2.1-0.6c-0.6,0-1.2,0.1-1.8,0.4
		c-0.6,0.3-1,0.6-1.4,1c-0.4,0.4-0.7,1-1,1.6c-0.2,0.6-0.4,1.2-0.4,1.9s0.1,1.3,0.4,2c0.2,0.6,0.6,1.2,1,1.6
		c0.4,0.5,0.9,0.8,1.5,1.1c0.6,0.3,1.1,0.4,1.8,0.4c0.4,0,0.8-0.1,1.2-0.2c0.4-0.1,0.8-0.3,1.1-0.5s0.6-0.4,0.9-0.7
		c0.2-0.3,0.4-0.5,0.5-0.8l0.4,0.1c-0.1,0.3-0.3,0.7-0.6,1c-0.3,0.3-0.6,0.6-0.9,0.8c-0.4,0.2-0.8,0.4-1.2,0.5
		c-0.4,0.1-0.9,0.2-1.3,0.2c-0.7,0-1.3-0.1-2-0.4c-0.6-0.3-1.2-0.7-1.6-1.2c-0.5-0.5-0.8-1.1-1.1-1.7
		C245.7,54.6,245.6,53.9,245.6,53.2z"/>
	<path d="M265.3,58.5h-0.4v-5.8c0-2.9-1-4.4-2.9-4.4c-0.5,0-1,0.1-1.4,0.3c-0.5,0.2-0.9,0.4-1.3,0.8c-0.4,0.3-0.7,0.7-1,1.1
		c-0.3,0.4-0.5,0.9-0.6,1.4v6.6h-0.4V43.8h0.4v6.9c0.2-0.4,0.5-0.8,0.8-1.2c0.3-0.4,0.7-0.7,1-0.9s0.8-0.4,1.2-0.6s0.9-0.2,1.3-0.2
		c1.1,0,1.9,0.4,2.5,1.2c0.6,0.8,0.8,2,0.8,3.6V58.5z"/>
</g>
<polyline fill="none" stroke="#5DA3A1" stroke-miterlimit="10" points="35,63.5 276.5,63.5 276.5,31 "/>
<polyline fill="none" stroke="#5DA3A1" stroke-miterlimit="10" points="275,42.5 286.9,42.5 266,42.5 "/>
</svg>
