<?xml version="1.0" encoding="utf-8"?>
<!-- Generator: Adobe Illustrator 18.1.1, SVG Export Plug-In . SVG Version: 6.00 Build 0)  -->
<svg version="1.1" id="Layer_1" xmlns="http://www.w3.org/2000/svg" xmlns:xlink="http://www.w3.org/1999/xlink" x="0px" y="0px"
	 viewBox="0 0 300 100" enable-background="new 0 0 300 100" xml:space="preserve">
<g>
	<path d="M31.5,48.9c0-0.9,0.2-1.7,0.5-2.6c0.3-0.8,0.7-1.6,1.3-2.3c0.6-0.7,1.3-1.2,2.1-1.6c0.8-0.4,1.8-0.6,2.9-0.6
		c1.3,0,2.4,0.3,3.2,0.9c0.9,0.6,1.5,1.3,2,2.2L43.1,45c-0.3-0.5-0.6-1-1-1.3c-0.4-0.4-0.8-0.7-1.2-0.9c-0.4-0.2-0.9-0.4-1.3-0.5
		s-0.9-0.2-1.4-0.2c-1,0-1.9,0.2-2.7,0.6c-0.8,0.4-1.4,0.9-2,1.6c-0.5,0.6-0.9,1.4-1.2,2.2c-0.3,0.8-0.4,1.6-0.4,2.4
		c0,0.9,0.2,1.8,0.5,2.6c0.3,0.8,0.8,1.6,1.3,2.2c0.6,0.6,1.2,1.1,2,1.5c0.8,0.4,1.6,0.6,2.5,0.6c0.5,0,1-0.1,1.4-0.2
		c0.5-0.1,1-0.3,1.4-0.5c0.5-0.2,0.9-0.6,1.3-0.9c0.4-0.4,0.7-0.8,1-1.4l0.4,0.1c-0.2,0.5-0.6,1-1,1.4c-0.4,0.4-0.9,0.8-1.4,1
		c-0.5,0.3-1,0.5-1.6,0.6c-0.6,0.1-1.1,0.2-1.7,0.2c-1,0-1.9-0.2-2.7-0.6c-0.8-0.4-1.5-1-2.1-1.7c-0.6-0.7-1-1.5-1.4-2.4
		C31.7,50.7,31.5,49.8,31.5,48.9z"/>
	<path d="M54.4,56.1H54v-5.8c0-2.9-1-4.4-2.9-4.4c-0.5,0-1,0.1-1.4,0.3c-0.5,0.2-0.9,0.4-1.3,0.8s-0.7,0.7-1,1.1
		c-0.3,0.4-0.5,0.9-0.6,1.4v6.6h-0.4V41.5h0.4v6.9c0.2-0.4,0.5-0.8,0.8-1.2c0.3-0.4,0.7-0.7,1-0.9s0.8-0.4,1.2-0.6
		c0.4-0.1,0.9-0.2,1.3-0.2c1.1,0,1.9,0.4,2.5,1.2c0.6,0.8,0.8,2,0.8,3.6V56.1z"/>
	<path d="M62,46.1c-1,0-1.8,0.4-2.6,1c-0.7,0.6-1.2,1.4-1.5,2.5v6.6h-0.4V45.7H58v2.7c0.4-0.7,0.8-1.3,1.5-1.8
		c0.6-0.5,1.3-0.8,1.9-0.8c0.1,0,0.3,0,0.4,0c0.1,0,0.2,0,0.3,0V46.1z"/>
	<path d="M64.1,43v-1.5h0.4V43H64.1z M64.1,56.1V45.7h0.4v10.4H64.1z"/>
	<path d="M70.9,56.3c-1.6,0-3-0.6-4-1.7l0.3-0.3c0.5,0.5,1.1,0.9,1.7,1.2c0.6,0.3,1.2,0.4,2,0.4c1,0,1.9-0.2,2.5-0.7s1-1.1,1-1.9
		c0-0.4-0.1-0.7-0.2-0.9c-0.2-0.2-0.4-0.5-0.7-0.6c-0.3-0.2-0.7-0.3-1.1-0.5c-0.5-0.1-1-0.3-1.6-0.4c-0.6-0.1-1.1-0.3-1.5-0.4
		s-0.8-0.3-1-0.4c-0.3-0.2-0.5-0.4-0.6-0.7c-0.1-0.3-0.2-0.6-0.2-1c0-0.5,0.1-1,0.3-1.3c0.2-0.4,0.5-0.7,0.8-0.9
		c0.3-0.2,0.7-0.4,1.2-0.5c0.4-0.1,0.9-0.2,1.4-0.2c0.8,0,1.6,0.1,2.2,0.4c0.6,0.3,1,0.6,1.2,1.1l-0.4,0.2c-0.3-0.4-0.7-0.7-1.2-0.9
		c-0.6-0.2-1.2-0.3-1.9-0.3c-0.4,0-0.8,0-1.2,0.1c-0.4,0.1-0.7,0.2-1,0.4c-0.3,0.2-0.5,0.5-0.7,0.8c-0.2,0.3-0.3,0.7-0.3,1.1
		c0,0.3,0.1,0.6,0.2,0.9c0.1,0.2,0.3,0.4,0.5,0.6c0.2,0.1,0.5,0.3,0.9,0.4c0.4,0.1,0.8,0.2,1.3,0.3c0.6,0.1,1.2,0.3,1.7,0.4
		s0.9,0.3,1.3,0.5c0.3,0.2,0.6,0.4,0.8,0.7c0.2,0.3,0.3,0.7,0.3,1.1c0,0.5-0.1,0.9-0.3,1.2c-0.2,0.4-0.4,0.7-0.8,0.9
		c-0.3,0.3-0.7,0.5-1.2,0.6C72,56.3,71.5,56.3,70.9,56.3z"/>
	<path d="M81.4,55.7c-0.2,0.1-0.4,0.2-0.6,0.3c-0.2,0.1-0.4,0.1-0.6,0.2c-0.2,0.1-0.5,0.1-0.8,0.1c-0.5,0-0.9-0.1-1.3-0.4
		c-0.4-0.3-0.5-0.7-0.5-1.2v-8.5h-1.5v-0.4h1.5v-3.6h0.4v3.6h2.5v0.4h-2.5v8.5c0,0.4,0.1,0.7,0.4,0.9c0.3,0.2,0.6,0.3,1,0.3
		c0.2,0,0.4,0,0.6-0.1c0.2,0,0.4-0.1,0.5-0.2c0.2-0.1,0.3-0.1,0.4-0.2c0.1-0.1,0.1-0.1,0.2-0.1L81.4,55.7z"/>
	<path d="M88,48.9c0-0.9,0.2-1.7,0.5-2.6c0.3-0.8,0.7-1.6,1.3-2.3c0.6-0.7,1.3-1.2,2.1-1.6c0.8-0.4,1.8-0.6,2.9-0.6
		c1.3,0,2.4,0.3,3.2,0.9c0.9,0.6,1.5,1.3,2,2.2L99.6,45c-0.3-0.5-0.6-1-1-1.3c-0.4-0.4-0.8-0.7-1.2-0.9c-0.4-0.2-0.9-0.4-1.3-0.5
		s-0.9-0.2-1.4-0.2c-1,0-1.9,0.2-2.7,0.6c-0.8,0.4-1.4,0.9-2,1.6c-0.5,0.6-0.9,1.4-1.2,2.2c-0.3,0.8-0.4,1.6-0.4,2.4
		c0,0.9,0.2,1.8,0.5,2.6c0.3,0.8,0.8,1.6,1.3,2.2c0.6,0.6,1.2,1.1,2,1.5c0.8,0.4,1.6,0.6,2.5,0.6c0.5,0,1-0.1,1.4-0.2
		c0.5-0.1,1-0.3,1.4-0.5c0.5-0.2,0.9-0.6,1.3-0.9c0.4-0.4,0.7-0.8,1-1.4l0.4,0.1c-0.2,0.5-0.6,1-1,1.4c-0.4,0.4-0.9,0.8-1.4,1
		c-0.5,0.3-1,0.5-1.6,0.6c-0.6,0.1-1.1,0.2-1.7,0.2c-1,0-1.9-0.2-2.7-0.6c-0.8-0.4-1.5-1-2.1-1.7c-0.6-0.7-1-1.5-1.4-2.4
		C88.2,50.7,88,49.8,88,48.9z"/>
	<path d="M107,56.3c-0.7,0-1.3-0.1-1.9-0.4c-0.6-0.3-1.1-0.7-1.6-1.2c-0.4-0.5-0.8-1.1-1.1-1.7c-0.3-0.7-0.4-1.3-0.4-2.1
		c0-0.7,0.1-1.4,0.4-2.1c0.3-0.7,0.6-1.2,1.1-1.7c0.5-0.5,1-0.9,1.6-1.2c0.6-0.3,1.2-0.4,1.9-0.4s1.3,0.1,1.9,0.4
		c0.6,0.3,1.1,0.7,1.6,1.2c0.4,0.5,0.8,1.1,1.1,1.7c0.3,0.7,0.4,1.3,0.4,2.1c0,0.7-0.1,1.4-0.4,2.1c-0.3,0.7-0.6,1.2-1.1,1.7
		c-0.4,0.5-1,0.9-1.6,1.2C108.4,56.2,107.7,56.3,107,56.3z M102.5,51c0,0.7,0.1,1.3,0.4,1.9c0.2,0.6,0.6,1.1,1,1.6
		c0.4,0.5,0.9,0.8,1.4,1.1c0.5,0.3,1.1,0.4,1.8,0.4c0.6,0,1.2-0.1,1.8-0.4c0.6-0.3,1-0.6,1.5-1.1c0.4-0.5,0.8-1,1-1.6
		c0.2-0.6,0.4-1.2,0.4-1.9c0-0.7-0.1-1.3-0.4-1.9c-0.2-0.6-0.6-1.1-1-1.6c-0.4-0.5-0.9-0.8-1.5-1.1c-0.6-0.3-1.1-0.4-1.8-0.4
		c-0.6,0-1.2,0.1-1.8,0.4c-0.6,0.3-1,0.6-1.5,1.1c-0.4,0.5-0.7,1-1,1.6C102.6,49.7,102.5,50.3,102.5,51z"/>
	<path d="M129.6,56.1h-0.4v-5.8c0-1.5-0.2-2.6-0.7-3.3c-0.4-0.7-1.2-1.1-2.1-1.1c-0.5,0-1,0.1-1.4,0.3c-0.4,0.2-0.8,0.4-1.2,0.8
		c-0.4,0.3-0.7,0.7-0.9,1.1c-0.3,0.4-0.5,0.9-0.6,1.4v6.6h-0.4v-5.8c0-1.5-0.2-2.6-0.7-3.3c-0.4-0.7-1.1-1.1-2.1-1.1
		c-0.5,0-0.9,0.1-1.4,0.3c-0.4,0.2-0.8,0.4-1.2,0.7c-0.4,0.3-0.7,0.7-0.9,1.1c-0.3,0.4-0.5,0.9-0.6,1.5v6.6h-0.4V45.7h0.4v2.7
		c0.5-0.9,1-1.6,1.7-2.1c0.7-0.5,1.5-0.7,2.3-0.7c0.9,0,1.6,0.3,2.2,0.8c0.6,0.6,0.9,1.3,1,2.2c1-2,2.4-3,4.2-3
		c1.1,0,1.9,0.4,2.4,1.2c0.5,0.8,0.8,2,0.8,3.6V56.1z"/>
	<path d="M147.9,56.1h-0.4v-5.8c0-1.5-0.2-2.6-0.7-3.3c-0.4-0.7-1.2-1.1-2.1-1.1c-0.5,0-1,0.1-1.4,0.3c-0.4,0.2-0.8,0.4-1.2,0.8
		c-0.4,0.3-0.7,0.7-0.9,1.1c-0.3,0.4-0.5,0.9-0.6,1.4v6.6h-0.4v-5.8c0-1.5-0.2-2.6-0.7-3.3c-0.4-0.7-1.1-1.1-2.1-1.1
		c-0.5,0-0.9,0.1-1.4,0.3c-0.4,0.2-0.8,0.4-1.2,0.7c-0.4,0.3-0.7,0.7-0.9,1.1c-0.3,0.4-0.5,0.9-0.6,1.5v6.6h-0.4V45.7h0.4v2.7
		c0.5-0.9,1-1.6,1.7-2.1c0.7-0.5,1.5-0.7,2.3-0.7c0.9,0,1.6,0.3,2.2,0.8c0.6,0.6,0.9,1.3,1,2.2c1-2,2.4-3,4.2-3
		c1.1,0,1.9,0.4,2.4,1.2c0.5,0.8,0.8,2,0.8,3.6V56.1z"/>
	<path d="M154.3,56.3c-2.2,0-3.4-1.6-3.4-4.8v-5.9h0.4v5.9c0,2.9,1,4.4,3,4.4c0.5,0,1-0.1,1.5-0.3c0.5-0.2,0.9-0.4,1.3-0.7
		c0.4-0.3,0.8-0.7,1.1-1.1c0.3-0.4,0.5-0.9,0.7-1.4v-6.6h0.4v9.6c0,0.3,0.1,0.4,0.3,0.4v0.4c-0.1,0-0.2,0-0.3,0
		c-0.1-0.1-0.2-0.1-0.3-0.3c-0.1-0.1-0.1-0.3-0.1-0.5v-1.9c-0.5,0.9-1.1,1.6-1.9,2.1C156.2,56.1,155.3,56.3,154.3,56.3z"/>
	<path d="M170.8,56.1h-0.4v-5.8c0-1.5-0.2-2.6-0.6-3.3c-0.4-0.7-1.1-1-2-1c-0.5,0-1,0.1-1.5,0.3c-0.5,0.2-0.9,0.4-1.4,0.8
		c-0.4,0.3-0.8,0.7-1.1,1.1c-0.3,0.4-0.5,0.9-0.7,1.4v6.6h-0.4V45.7h0.4v2.7c0.2-0.4,0.5-0.8,0.8-1.2c0.3-0.4,0.7-0.7,1.1-0.9
		c0.4-0.2,0.8-0.4,1.3-0.6c0.5-0.1,0.9-0.2,1.4-0.2c1.1,0,1.9,0.4,2.4,1.2c0.5,0.8,0.7,2,0.7,3.6V56.1z"/>
	<path d="M174,43v-1.5h0.4V43H174z M174,56.1V45.7h0.4v10.4H174z"/>
	<path d="M181.8,55.7c-0.2,0.1-0.4,0.2-0.6,0.3c-0.2,0.1-0.4,0.1-0.6,0.2s-0.5,0.1-0.8,0.1c-0.5,0-0.9-0.1-1.3-0.4
		c-0.4-0.3-0.5-0.7-0.5-1.2v-8.5h-1.5v-0.4h1.5v-3.6h0.4v3.6h2.5v0.4h-2.5v8.5c0,0.4,0.1,0.7,0.4,0.9s0.6,0.3,1,0.3
		c0.2,0,0.4,0,0.6-0.1c0.2,0,0.4-0.1,0.5-0.2c0.2-0.1,0.3-0.1,0.4-0.2c0.1-0.1,0.1-0.1,0.2-0.1L181.8,55.7z"/>
	<path d="M184.6,60.2c0.2,0,0.4,0,0.6,0c0.2,0,0.3-0.1,0.3-0.1c0,0,0-0.1,0.1-0.2c0.1-0.1,0.2-0.3,0.3-0.6c0.1-0.3,0.3-0.7,0.5-1.2
		c0.2-0.5,0.5-1.1,0.8-1.9l-4.9-10.4h0.4l4.6,9.9l4.4-9.9h0.4l-6.2,14.2c-0.2,0.4-0.4,0.6-0.7,0.6c-0.3,0.1-0.5,0.1-0.8,0.1V60.2z"
		/>
	<path d="M198.8,48.9c0-0.9,0.2-1.7,0.5-2.6c0.3-0.8,0.7-1.6,1.3-2.3c0.6-0.7,1.3-1.2,2.1-1.6c0.8-0.4,1.8-0.6,2.9-0.6
		c1.3,0,2.4,0.3,3.2,0.9c0.9,0.6,1.5,1.3,2,2.2l-0.4,0.1c-0.3-0.5-0.6-1-1-1.3c-0.4-0.4-0.8-0.7-1.2-0.9c-0.4-0.2-0.9-0.4-1.3-0.5
		c-0.5-0.1-0.9-0.2-1.4-0.2c-1,0-1.9,0.2-2.7,0.6c-0.8,0.4-1.4,0.9-2,1.6c-0.5,0.6-0.9,1.4-1.2,2.2c-0.3,0.8-0.4,1.6-0.4,2.4
		c0,0.9,0.2,1.8,0.5,2.6c0.3,0.8,0.8,1.6,1.3,2.2c0.6,0.6,1.2,1.1,2,1.5c0.8,0.4,1.6,0.6,2.5,0.6c0.5,0,1-0.1,1.4-0.2
		c0.5-0.1,1-0.3,1.4-0.5c0.5-0.2,0.9-0.6,1.3-0.9c0.4-0.4,0.7-0.8,1-1.4l0.4,0.1c-0.2,0.5-0.6,1-1,1.4c-0.4,0.4-0.9,0.8-1.4,1
		c-0.5,0.3-1.1,0.5-1.6,0.6c-0.6,0.1-1.1,0.2-1.7,0.2c-1,0-1.9-0.2-2.7-0.6c-0.8-0.4-1.5-1-2.1-1.7c-0.6-0.7-1-1.5-1.4-2.4
		C198.9,50.7,198.8,49.8,198.8,48.9z"/>
	<path d="M221.6,56.1h-0.4v-5.8c0-2.9-1-4.4-2.9-4.4c-0.5,0-1,0.1-1.4,0.3c-0.5,0.2-0.9,0.4-1.3,0.8c-0.4,0.3-0.7,0.7-1,1.1
		c-0.3,0.4-0.5,0.9-0.6,1.4v6.6h-0.4V41.5h0.4v6.9c0.2-0.4,0.5-0.8,0.8-1.2c0.3-0.4,0.7-0.7,1-0.9s0.8-0.4,1.2-0.6s0.9-0.2,1.3-0.2
		c1.1,0,1.9,0.4,2.5,1.2c0.6,0.8,0.8,2,0.8,3.6V56.1z"/>
	<path d="M228.1,56.3c-2.2,0-3.4-1.6-3.4-4.8v-5.9h0.4v5.9c0,2.9,1,4.4,3,4.4c0.5,0,1-0.1,1.5-0.3c0.5-0.2,0.9-0.4,1.3-0.7
		c0.4-0.3,0.8-0.7,1.1-1.1c0.3-0.4,0.5-0.9,0.7-1.4v-6.6h0.4v9.6c0,0.3,0.1,0.4,0.3,0.4v0.4c-0.1,0-0.2,0-0.3,0
		c-0.1-0.1-0.2-0.1-0.3-0.3c-0.1-0.1-0.1-0.3-0.1-0.5v-1.9c-0.5,0.9-1.1,1.6-1.9,2.1C229.9,56.1,229,56.3,228.1,56.3z"/>
	<path d="M240.9,46.1c-1,0-1.8,0.4-2.6,1c-0.7,0.6-1.2,1.4-1.5,2.5v6.6h-0.4V45.7h0.4v2.7c0.4-0.7,0.8-1.3,1.5-1.8
		c0.6-0.5,1.3-0.8,1.9-0.8c0.1,0,0.3,0,0.4,0c0.1,0,0.2,0,0.3,0V46.1z"/>
	<path d="M241.6,50.9c0-0.8,0.1-1.5,0.4-2.1c0.3-0.7,0.6-1.2,1.1-1.7c0.5-0.5,1-0.9,1.6-1.1s1.3-0.4,2-0.4c0.9,0,1.7,0.2,2.4,0.6
		s1.2,1,1.6,1.7l-0.4,0.1c-0.4-0.6-0.8-1.2-1.5-1.5c-0.6-0.4-1.3-0.6-2.1-0.6c-0.6,0-1.2,0.1-1.8,0.4c-0.6,0.3-1,0.6-1.4,1
		c-0.4,0.4-0.7,1-1,1.6c-0.2,0.6-0.4,1.2-0.4,1.9c0,0.7,0.1,1.3,0.4,2c0.2,0.6,0.6,1.2,1,1.6c0.4,0.5,0.9,0.8,1.5,1.1
		c0.6,0.3,1.1,0.4,1.8,0.4c0.4,0,0.8-0.1,1.2-0.2c0.4-0.1,0.8-0.3,1.1-0.5s0.6-0.4,0.9-0.7c0.2-0.3,0.4-0.5,0.5-0.8l0.4,0.1
		c-0.1,0.3-0.3,0.7-0.6,1c-0.3,0.3-0.6,0.6-0.9,0.8c-0.4,0.2-0.8,0.4-1.2,0.5c-0.4,0.1-0.9,0.2-1.3,0.2c-0.7,0-1.3-0.1-2-0.4
		c-0.6-0.3-1.2-0.7-1.6-1.2c-0.5-0.5-0.8-1.1-1.1-1.7C241.7,52.3,241.6,51.6,241.6,50.9z"/>
	<path d="M261.3,56.1h-0.4v-5.8c0-2.9-1-4.4-2.9-4.4c-0.5,0-1,0.1-1.4,0.3c-0.5,0.2-0.9,0.4-1.3,0.8c-0.4,0.3-0.7,0.7-1,1.1
		c-0.3,0.4-0.5,0.9-0.6,1.4v6.6h-0.4V41.5h0.4v6.9c0.2-0.4,0.5-0.8,0.8-1.2c0.3-0.4,0.7-0.7,1-0.9c0.4-0.2,0.8-0.4,1.2-0.6
		s0.9-0.2,1.3-0.2c1.1,0,1.9,0.4,2.5,1.2c0.6,0.8,0.8,2,0.8,3.6V56.1z"/>
</g>
<g>
	<g>
		<g>
			<path fill="#5DA3A1" d="M10.6,70.3c1.8,0,3.6-0.1,5.6-0.4c1.9-0.3,3.7-0.6,5.5-0.9c1.7-0.3,3.3-0.7,4.7-1.1
				c1.4-0.4,2.5-0.7,3.3-0.9v1.2c-0.8,0.2-1.9,0.5-3.3,0.9c-1.4,0.4-3,0.7-4.7,1.1c-1.7,0.4-3.5,0.7-5.5,0.9
				c-1.9,0.3-3.8,0.4-5.6,0.4c-1.1,0-2.2-0.2-3.1-0.5c-0.9-0.3-1.7-0.8-2.4-1.4c-1.4-1.3-2.1-3.3-2.1-6V32.4c0-2.7,0.7-4.7,2.1-6
				c0.7-0.7,1.5-1.2,2.4-1.5c0.9-0.3,1.9-0.4,3.1-0.4c1.8,0,3.6,0.1,5.6,0.4s3.7,0.6,5.5,0.9c1.7,0.4,3.3,0.7,4.7,1.1
				c1.4,0.4,2.5,0.7,3.3,0.9v1.2c-0.8-0.2-1.9-0.5-3.3-0.9c-1.4-0.4-3-0.7-4.7-1.1c-1.7-0.3-3.5-0.7-5.5-0.9s-3.8-0.4-5.6-0.4
				c-2.1,0-3.6,0.5-4.7,1.6c-0.5,0.5-0.9,1.2-1.2,2c-0.3,0.8-0.5,1.9-0.5,3.1v31.2c0,1.3,0.2,2.3,0.5,3.1c0.3,0.8,0.7,1.5,1.2,2
				C7,69.8,8.5,70.3,10.6,70.3z"/>
		</g>
		<g>
			<path fill="#5DA3A1" d="M12.9,67.1c1.5,0,3.1-0.1,4.7-0.3c1.6-0.2,3.2-0.5,4.6-0.8c1.5-0.3,2.8-0.6,4-0.9
				c1.2-0.3,2.1-0.6,2.8-0.8v1.1c-0.7,0.2-1.6,0.4-2.8,0.7c-1.2,0.3-2.5,0.6-4,0.9c-1.5,0.3-3,0.6-4.6,0.8c-1.6,0.2-3.2,0.3-4.7,0.3
				c-1,0-1.8-0.1-2.6-0.4c-0.8-0.3-1.5-0.7-2.1-1.2c-1.2-1.1-1.8-2.8-1.8-5.1V34.9c0-2.3,0.6-4,1.8-5.1c0.6-0.6,1.3-1,2.1-1.3
				c0.8-0.2,1.6-0.4,2.6-0.4c1.5,0,3.1,0.1,4.7,0.3c1.6,0.2,3.2,0.5,4.6,0.8c1.5,0.3,2.8,0.6,4,0.9c1.2,0.3,2.1,0.6,2.8,0.8v1
				c-0.7-0.2-1.6-0.4-2.8-0.8c-1.2-0.3-2.5-0.6-4-0.9c-1.5-0.3-3-0.6-4.6-0.8c-1.6-0.2-3.2-0.3-4.7-0.3c-1.7,0-3.1,0.4-4,1.3
				c-0.4,0.4-0.8,1-1.1,1.7c-0.3,0.7-0.4,1.6-0.4,2.7v26.5c0,1.1,0.1,2,0.4,2.7c0.3,0.7,0.6,1.3,1.1,1.7
				C9.7,66.7,11.1,67.1,12.9,67.1z"/>
		</g>
		<g>
			<path fill="#5DA3A1" d="M14.8,63.9c1.3,0,2.6-0.1,3.9-0.3c1.3-0.2,2.6-0.4,3.8-0.6c1.2-0.2,2.3-0.5,3.3-0.8s1.8-0.5,2.3-0.6v0.9
				c-0.6,0.2-1.3,0.4-2.3,0.6s-2.1,0.5-3.3,0.8c-1.2,0.2-2.5,0.5-3.8,0.6c-1.3,0.2-2.6,0.3-3.9,0.3c-0.8,0-1.5-0.1-2.2-0.3
				c-0.6-0.2-1.2-0.6-1.7-1c-1-0.9-1.5-2.3-1.5-4.2V37.3c0-1.9,0.5-3.3,1.5-4.2c0.5-0.5,1.1-0.8,1.7-1c0.6-0.2,1.4-0.3,2.2-0.3
				c1.3,0,2.6,0.1,3.9,0.3c1.3,0.2,2.6,0.4,3.8,0.6c1.2,0.2,2.3,0.5,3.3,0.8c1,0.3,1.8,0.5,2.3,0.6v0.8c-0.6-0.2-1.3-0.4-2.3-0.6
				c-1-0.3-2.1-0.5-3.3-0.8c-1.2-0.2-2.5-0.5-3.8-0.6c-1.3-0.2-2.6-0.3-3.9-0.3c-1.4,0-2.5,0.4-3.3,1.1c-0.4,0.4-0.7,0.8-0.9,1.4
				c-0.2,0.6-0.3,1.3-0.3,2.2v21.9c0,0.9,0.1,1.6,0.3,2.2c0.2,0.6,0.5,1.1,0.9,1.4C12.2,63.5,13.3,63.9,14.8,63.9z"/>
		</g>
	</g>
</g>
</svg>
